<svg id="Layer_1" data-name="Layer 1" xmlns="http://www.w3.org/2000/svg" viewBox="0 0 1000 290"><g id="embark"><path d="M368.3591,207.9353H298.3223c1.6541,11.3972,11.5787,18.9334,26.288,18.9334,9.739,0,19.486-3.3082,25.3682-8.6417l13.5958,13.9711c-9.5534,9.743-24.0771,15.4395-39.8838,15.4395-30.7016,0-50.18-18.5621-50.18-47.6056,0-28.3092,19.3005-47.4241,47.7912-47.4241C354.2065,152.6079,372.4015,174.2967,368.3591,207.9353Zm-69.6656-16.1778h46.6858c-.92-11.7642-9.739-19.1149-23.3429-19.1149C309.1667,172.6426,300.5251,179.6261,298.6935,191.7575Z" style="fill:#010101"/><path d="M532.5258,191.2088v54.0405H508.0775v-51.285c0-12.8656-6.0677-20.0347-16.9121-20.0347-11.7642,0-19.6635,8.4561-19.6635,21.3217v49.998H447.2311v-51.285c0-12.8656-6.06-20.0347-16.9121-20.0347-11.7642,0-19.6635,8.4561-19.6635,21.3217v49.998H386.2071V154.4436h21.14l1.6541,10.6628a31.9821,31.9821,0,0,1,25.9168-12.4985c12.4985,0,22.7942,5.6966,28.3052,15.0725,7.1731-9.9286,17.8319-15.0725,31.807-15.0725C518.1877,152.6079,532.5258,167.1276,532.5258,191.2088Z" style="fill:#010101"/><path d="M653.1375,199.8464c0,27.9421-18.0175,47.4241-44.12,47.4241-13.0472,0-24.0772-4.5952-31.4278-13.0512l-1.6541,11.03h-21.14V116.5769h24.4483v47.057c7.3506-7.1691,17.8319-11.2115,29.7737-11.2115C635.12,152.4224,653.1375,171.9084,653.1375,199.8464Zm-24.2627,0c0-15.258-10.2958-26.1024-24.82-26.1024-14.7013,0-24.997,10.8444-24.997,26.1024s10.2957,26.1024,24.997,26.1024C618.579,225.9488,628.8748,215.1044,628.8748,199.8464Z" style="fill:#010101"/><path d="M764.01,154.4436v90.8057H742.87l-1.6541-11.03c-7.5362,8.456-18.5661,13.0512-31.4358,13.0512-26.1024,0-44.1118-19.482-44.1118-47.4241,0-27.938,18.0094-47.424,44.1118-47.424,12.87,0,24.0772,4.5951,31.4358,12.8656l1.6541-10.8444Zm-24.2708,45.4028c0-15.258-10.2877-26.1024-24.997-26.1024-14.5238,0-24.8114,10.8444-24.8114,26.1024s10.2876,26.1024,24.8114,26.1024C729.4517,225.9488,739.7394,215.1044,739.7394,199.8464Z" style="fill:#010101"/><path d="M859.4231,160.8784l-10.6588,18.9333c-5.1479-3.4937-9.5534-4.7807-14.7013-4.7807-13.4183,0-22.06,9.3759-22.06,25.9168v44.3015H787.5548V154.4436h21.14l2.0172,11.3971c6.9875-9.3759,15.6291-13.2328,25.5537-13.2328C844.7219,152.6079,853.541,155.3634,859.4231,160.8784Z" style="fill:#010101"/><path d="M927.4507,245.2493l-32.5332-38.6009v38.6009H870.6548V116.5769h24.2627v74.4463l29.225-36.58h28.6764l-35.4783,43.3816,40.9973,47.4241Z" style="fill:#010101"/></g><path id="dog" d="M200.8526,171.6936l22.801-47.8a4.2457,4.2457,0,0,1,3.4145-2.3494l65.52-5.1565L289.77,80.5865l-65.52,5.1566a4.2457,4.2457,0,0,1-3.74-1.7864L183.285,29.7949,153.688,50.137l37.2255,54.1618a4.2538,4.2538,0,0,1,.325,4.1295l-22.8035,47.807a4.2521,4.2521,0,0,1-3.4148,2.3463l-52.7988,4.1553a4.2566,4.2566,0,0,1-3.74-1.7863l-37.2223-54.162-29.597,20.3421,37.2224,54.162a4.2494,4.2494,0,0,1,.3284,4.1324L50.9184,244.7434l32.4148,15.4617,28.2913-59.3181a4.2564,4.2564,0,0,1,3.4145-2.3494l52.7988-4.1554a4.312,4.312,0,0,1,2.1032.406,4.253,4.253,0,0,1,1.64,1.377L208.8064,250.33l29.597-20.3421-37.2255-54.1618a4.2383,4.2383,0,0,1-.3253-4.1326" style="fill:#fac312;fill-rule:evenodd"/></svg>